<svg width="254" height="46" viewBox="0 0 254 46" fill="none" xmlns="http://www.w3.org/2000/svg">
<mask id="path-1-outside-1" maskUnits="userSpaceOnUse" x="0" y="0" width="254" height="46" fill="black">
<rect fill="white" width="254" height="46"/>
<path d="M10.7891 4.59219C13.8674 4.59219 16.5271 5.17273 18.7682 6.33382C21.0364 7.4679 22.7645 9.10152 23.9526 11.2347C25.1677 13.3678 25.7752 15.879 25.7752 18.7682C25.7752 21.6574 25.1677 24.1686 23.9526 26.3018C22.7645 28.4079 21.0364 30.028 18.7682 31.1621C16.5271 32.2692 13.8674 32.8227 10.7891 32.8227H2V4.59219H10.7891ZM10.7891 29.785C14.4344 29.785 17.2156 28.8265 19.1327 26.9093C21.0499 24.9652 22.0085 22.2515 22.0085 18.7682C22.0085 15.258 21.0364 12.5173 19.0922 10.5461C17.1751 8.57498 14.4074 7.58941 10.7891 7.58941H5.68577V29.785H10.7891Z"/>
<path d="M32.5405 7.02237C31.8384 7.02237 31.2444 6.77935 30.7584 6.29331C30.2723 5.80728 30.0293 5.21323 30.0293 4.51118C30.0293 3.80913 30.2723 3.21509 30.7584 2.72905C31.2444 2.24302 31.8384 2 32.5405 2C33.2155 2 33.7826 2.24302 34.2416 2.72905C34.7277 3.21509 34.9707 3.80913 34.9707 4.51118C34.9707 5.21323 34.7277 5.80728 34.2416 6.29331C33.7826 6.77935 33.2155 7.02237 32.5405 7.02237ZM34.3226 10.6271V32.8227H30.6369V10.6271H34.3226Z"/>
<path d="M60.8559 20.8744C60.8559 21.5764 60.8153 22.319 60.7343 23.102H42.994C43.1291 25.2892 43.8716 27.0038 45.2217 28.2459C46.5988 29.461 48.2594 30.0685 50.2036 30.0685C51.7967 30.0685 53.1198 29.704 54.1729 28.975C55.2529 28.2189 56.009 27.2198 56.441 25.9777H60.4103C59.8163 28.1109 58.6282 29.8525 56.8461 31.2026C55.0639 32.5257 52.8498 33.1873 50.2036 33.1873C48.0974 33.1873 46.2073 32.7147 44.5332 31.7697C42.886 30.8246 41.5899 29.488 40.6449 27.7599C39.6998 26.0047 39.2273 23.9796 39.2273 21.6844C39.2273 19.3893 39.6863 17.3776 40.6044 15.6495C41.5224 13.9214 42.805 12.5983 44.4522 11.6802C46.1263 10.7351 48.0434 10.2626 50.2036 10.2626C52.3097 10.2626 54.1729 10.7216 55.793 11.6397C57.4131 12.5578 58.6552 13.8269 59.5192 15.447C60.4103 17.0401 60.8559 18.8492 60.8559 20.8744ZM57.0486 20.1048C57.0486 18.7007 56.738 17.4991 56.117 16.5001C55.496 15.474 54.6454 14.7044 53.5653 14.1914C52.5122 13.6513 51.3377 13.3813 50.0416 13.3813C48.1784 13.3813 46.5853 13.9754 45.2622 15.1635C43.9661 16.3515 43.2236 17.9987 43.0345 20.1048H57.0486Z"/>
<path d="M74.8746 10.2626C76.7918 10.2626 78.4659 10.6811 79.897 11.5182C81.3551 12.3553 82.4352 13.4083 83.1372 14.6774V10.6271H86.8635V33.3088C86.8635 35.3339 86.4315 37.1296 85.5674 38.6957C84.7033 40.2888 83.4612 41.5309 81.8411 42.4219C80.248 43.313 78.3849 43.7585 76.2517 43.7585C73.3355 43.7585 70.9053 43.07 68.9612 41.6929C67.017 40.3158 65.8695 38.4392 65.5184 36.063H69.1637C69.5687 37.4131 70.4058 38.4932 71.6749 39.3032C72.944 40.1403 74.4696 40.5588 76.2517 40.5588C78.2769 40.5588 79.924 39.9243 81.1931 38.6552C82.4892 37.3861 83.1372 35.6039 83.1372 33.3088V28.6509C82.4082 29.947 81.3281 31.0271 79.897 31.8912C78.4659 32.7552 76.7918 33.1873 74.8746 33.1873C72.9035 33.1873 71.1078 32.7012 69.4877 31.7292C67.8946 30.7571 66.639 29.3935 65.721 27.6384C64.8029 25.8832 64.3438 23.8851 64.3438 21.6439C64.3438 19.3758 64.8029 17.3911 65.721 15.69C66.639 13.9619 67.8946 12.6253 69.4877 11.6802C71.1078 10.7351 72.9035 10.2626 74.8746 10.2626ZM83.1372 21.6844C83.1372 20.0103 82.7997 18.5522 82.1246 17.3101C81.4496 16.068 80.5315 15.123 79.3704 14.4749C78.2364 13.7999 76.9808 13.4623 75.6037 13.4623C74.2266 13.4623 72.971 13.7864 71.8369 14.4344C70.7028 15.0825 69.7982 16.0275 69.1232 17.2696C68.4481 18.5117 68.1106 19.9698 68.1106 21.6439C68.1106 23.3451 68.4481 24.8302 69.1232 26.0993C69.7982 27.3413 70.7028 28.2999 71.8369 28.975C72.971 29.623 74.2266 29.947 75.6037 29.947C76.9808 29.947 78.2364 29.623 79.3704 28.975C80.5315 28.2999 81.4496 27.3413 82.1246 26.0993C82.7997 24.8302 83.1372 23.3586 83.1372 21.6844Z"/>
<path d="M102.772 33.1873C100.693 33.1873 98.803 32.7147 97.1019 31.7697C95.4277 30.8246 94.1046 29.488 93.1326 27.7599C92.1875 26.0047 91.715 23.9796 91.715 21.6844C91.715 19.4163 92.201 17.4181 93.1731 15.69C94.1722 13.9349 95.5223 12.5983 97.2234 11.6802C98.9245 10.7351 100.828 10.2626 102.934 10.2626C105.04 10.2626 106.944 10.7351 108.645 11.6802C110.346 12.5983 111.683 13.9214 112.655 15.6495C113.654 17.3776 114.154 19.3893 114.154 21.6844C114.154 23.9796 113.641 26.0047 112.615 27.7599C111.615 29.488 110.252 30.8246 108.524 31.7697C106.796 32.7147 104.878 33.1873 102.772 33.1873ZM102.772 29.947C104.095 29.947 105.337 29.6365 106.499 29.0155C107.66 28.3944 108.591 27.4629 109.293 26.2208C110.022 24.9787 110.387 23.4666 110.387 21.6844C110.387 19.9023 110.036 18.3902 109.334 17.1481C108.632 15.906 107.714 14.9879 106.58 14.3939C105.445 13.7729 104.217 13.4623 102.894 13.4623C101.544 13.4623 100.302 13.7729 99.1675 14.3939C98.0604 14.9879 97.1694 15.906 96.4943 17.1481C95.8193 18.3902 95.4818 19.9023 95.4818 21.6844C95.4818 23.4936 95.8058 25.0192 96.4538 26.2613C97.1289 27.5034 98.0199 28.4349 99.127 29.056C100.234 29.65 101.449 29.947 102.772 29.947Z"/>
<path d="M144.662 32.8227L137.939 21.2794H133.484V32.8227H129.798V4.59219H138.911C141.044 4.59219 142.84 4.95672 144.298 5.68577C145.783 6.41482 146.89 7.40039 147.619 8.64248C148.348 9.88457 148.713 11.3022 148.713 12.8953C148.713 14.8394 148.146 16.5541 147.012 18.0392C145.905 19.5243 144.23 20.5098 141.989 20.9959L149.077 32.8227H144.662ZM133.484 18.3227H138.911C140.909 18.3227 142.408 17.8367 143.407 16.8646C144.406 15.8655 144.905 14.5424 144.905 12.8953C144.905 11.2212 144.406 9.92508 143.407 9.00701C142.435 8.08894 140.936 7.62991 138.911 7.62991H133.484V18.3227Z"/>
<path d="M164.12 33.1873C162.041 33.1873 160.151 32.7147 158.45 31.7697C156.775 30.8246 155.452 29.488 154.48 27.7599C153.535 26.0047 153.063 23.9796 153.063 21.6844C153.063 19.4163 153.549 17.4181 154.521 15.69C155.52 13.9349 156.87 12.5983 158.571 11.6802C160.272 10.7351 162.176 10.2626 164.282 10.2626C166.388 10.2626 168.292 10.7351 169.993 11.6802C171.694 12.5983 173.031 13.9214 174.003 15.6495C175.002 17.3776 175.501 19.3893 175.501 21.6844C175.501 23.9796 174.988 26.0047 173.962 27.7599C172.963 29.488 171.6 30.8246 169.871 31.7697C168.143 32.7147 166.226 33.1873 164.12 33.1873ZM164.12 29.947C165.443 29.947 166.685 29.6365 167.846 29.0155C169.007 28.3944 169.939 27.4629 170.641 26.2208C171.37 24.9787 171.735 23.4666 171.735 21.6844C171.735 19.9023 171.384 18.3902 170.681 17.1481C169.979 15.906 169.061 14.9879 167.927 14.3939C166.793 13.7729 165.565 13.4623 164.242 13.4623C162.891 13.4623 161.649 13.7729 160.515 14.3939C159.408 14.9879 158.517 15.906 157.842 17.1481C157.167 18.3902 156.829 19.9023 156.829 21.6844C156.829 23.4936 157.153 25.0192 157.802 26.2613C158.477 27.5034 159.368 28.4349 160.475 29.056C161.582 29.65 162.797 29.947 164.12 29.947Z"/>
<path d="M178.97 21.6844C178.97 19.3893 179.429 17.3911 180.347 15.69C181.266 13.9619 182.535 12.6253 184.155 11.6802C185.802 10.7351 187.678 10.2626 189.785 10.2626C192.512 10.2626 194.753 10.9241 196.508 12.2472C198.29 13.5703 199.465 15.4065 200.032 17.7556H196.063C195.685 16.4055 194.942 15.339 193.835 14.5559C192.755 13.7729 191.405 13.3813 189.785 13.3813C187.678 13.3813 185.977 14.1104 184.681 15.5685C183.385 16.9996 182.737 19.0382 182.737 21.6844C182.737 24.3576 183.385 26.4233 184.681 27.8814C185.977 29.3395 187.678 30.0685 189.785 30.0685C191.405 30.0685 192.755 29.6905 193.835 28.9345C194.915 28.1784 195.658 27.0983 196.063 25.6942H200.032C199.438 27.9624 198.25 29.785 196.468 31.1621C194.686 32.5122 192.458 33.1873 189.785 33.1873C187.678 33.1873 185.802 32.7147 184.155 31.7697C182.535 30.8246 181.266 29.488 180.347 27.7599C179.429 26.0317 178.97 24.0066 178.97 21.6844Z"/>
<path d="M215.967 10.2221C217.641 10.2221 219.153 10.5866 220.503 11.3157C221.853 12.0177 222.906 13.0843 223.662 14.5154C224.445 15.9465 224.837 17.6881 224.837 19.7403V32.8227H221.192V20.2668C221.192 18.0527 220.638 16.365 219.531 15.204C218.424 14.0159 216.912 13.4218 214.995 13.4218C213.05 13.4218 211.498 14.0294 210.337 15.2445C209.203 16.4596 208.636 18.2282 208.636 20.5503V32.8227H204.95V2.85056H208.636V13.7864C209.365 12.6523 210.364 11.7747 211.633 11.1537C212.929 10.5326 214.374 10.2221 215.967 10.2221Z"/>
<path d="M229.48 21.6439C229.48 19.3758 229.939 17.3911 230.857 15.69C231.776 13.9619 233.031 12.6253 234.624 11.6802C236.244 10.7351 238.04 10.2626 240.011 10.2626C241.955 10.2626 243.643 10.6811 245.074 11.5182C246.505 12.3553 247.572 13.4083 248.274 14.6774V10.6271H252V32.8227H248.274V28.6914C247.545 29.9875 246.451 31.0676 244.993 31.9317C243.562 32.7687 241.888 33.1873 239.971 33.1873C237.999 33.1873 236.217 32.7012 234.624 31.7292C233.031 30.7571 231.776 29.3935 230.857 27.6384C229.939 25.8832 229.48 23.8851 229.48 21.6439ZM248.274 21.6844C248.274 20.0103 247.936 18.5522 247.261 17.3101C246.586 16.068 245.668 15.123 244.507 14.4749C243.373 13.7999 242.117 13.4623 240.74 13.4623C239.363 13.4623 238.108 13.7864 236.973 14.4344C235.839 15.0825 234.935 16.0275 234.26 17.2696C233.585 18.5117 233.247 19.9698 233.247 21.6439C233.247 23.3451 233.585 24.8302 234.26 26.0993C234.935 27.3413 235.839 28.2999 236.973 28.975C238.108 29.623 239.363 29.947 240.74 29.947C242.117 29.947 243.373 29.623 244.507 28.975C245.668 28.2999 246.586 27.3413 247.261 26.0993C247.936 24.8302 248.274 23.3586 248.274 21.6844Z"/>
</mask>
<path d="M10.7891 4.59219C13.8674 4.59219 16.5271 5.17273 18.7682 6.33382C21.0364 7.4679 22.7645 9.10152 23.9526 11.2347C25.1677 13.3678 25.7752 15.879 25.7752 18.7682C25.7752 21.6574 25.1677 24.1686 23.9526 26.3018C22.7645 28.4079 21.0364 30.028 18.7682 31.1621C16.5271 32.2692 13.8674 32.8227 10.7891 32.8227H2V4.59219H10.7891ZM10.7891 29.785C14.4344 29.785 17.2156 28.8265 19.1327 26.9093C21.0499 24.9652 22.0085 22.2515 22.0085 18.7682C22.0085 15.258 21.0364 12.5173 19.0922 10.5461C17.1751 8.57498 14.4074 7.58941 10.7891 7.58941H5.68577V29.785H10.7891Z" stroke="white" stroke-width="4" mask="url(#path-1-outside-1)"/>
<path d="M32.5405 7.02237C31.8384 7.02237 31.2444 6.77935 30.7584 6.29331C30.2723 5.80728 30.0293 5.21323 30.0293 4.51118C30.0293 3.80913 30.2723 3.21509 30.7584 2.72905C31.2444 2.24302 31.8384 2 32.5405 2C33.2155 2 33.7826 2.24302 34.2416 2.72905C34.7277 3.21509 34.9707 3.80913 34.9707 4.51118C34.9707 5.21323 34.7277 5.80728 34.2416 6.29331C33.7826 6.77935 33.2155 7.02237 32.5405 7.02237ZM34.3226 10.6271V32.8227H30.6369V10.6271H34.3226Z" stroke="white" stroke-width="4" mask="url(#path-1-outside-1)"/>
<path d="M60.8559 20.8744C60.8559 21.5764 60.8153 22.319 60.7343 23.102H42.994C43.1291 25.2892 43.8716 27.0038 45.2217 28.2459C46.5988 29.461 48.2594 30.0685 50.2036 30.0685C51.7967 30.0685 53.1198 29.704 54.1729 28.975C55.2529 28.2189 56.009 27.2198 56.441 25.9777H60.4103C59.8163 28.1109 58.6282 29.8525 56.8461 31.2026C55.0639 32.5257 52.8498 33.1873 50.2036 33.1873C48.0974 33.1873 46.2073 32.7147 44.5332 31.7697C42.886 30.8246 41.5899 29.488 40.6449 27.7599C39.6998 26.0047 39.2273 23.9796 39.2273 21.6844C39.2273 19.3893 39.6863 17.3776 40.6044 15.6495C41.5224 13.9214 42.805 12.5983 44.4522 11.6802C46.1263 10.7351 48.0434 10.2626 50.2036 10.2626C52.3097 10.2626 54.1729 10.7216 55.793 11.6397C57.4131 12.5578 58.6552 13.8269 59.5192 15.447C60.4103 17.0401 60.8559 18.8492 60.8559 20.8744ZM57.0486 20.1048C57.0486 18.7007 56.738 17.4991 56.117 16.5001C55.496 15.474 54.6454 14.7044 53.5653 14.1914C52.5122 13.6513 51.3377 13.3813 50.0416 13.3813C48.1784 13.3813 46.5853 13.9754 45.2622 15.1635C43.9661 16.3515 43.2236 17.9987 43.0345 20.1048H57.0486Z" stroke="white" stroke-width="4" mask="url(#path-1-outside-1)"/>
<path d="M74.8746 10.2626C76.7918 10.2626 78.4659 10.6811 79.897 11.5182C81.3551 12.3553 82.4352 13.4083 83.1372 14.6774V10.6271H86.8635V33.3088C86.8635 35.3339 86.4315 37.1296 85.5674 38.6957C84.7033 40.2888 83.4612 41.5309 81.8411 42.4219C80.248 43.313 78.3849 43.7585 76.2517 43.7585C73.3355 43.7585 70.9053 43.07 68.9612 41.6929C67.017 40.3158 65.8695 38.4392 65.5184 36.063H69.1637C69.5687 37.4131 70.4058 38.4932 71.6749 39.3032C72.944 40.1403 74.4696 40.5588 76.2517 40.5588C78.2769 40.5588 79.924 39.9243 81.1931 38.6552C82.4892 37.3861 83.1372 35.6039 83.1372 33.3088V28.6509C82.4082 29.947 81.3281 31.0271 79.897 31.8912C78.4659 32.7552 76.7918 33.1873 74.8746 33.1873C72.9035 33.1873 71.1078 32.7012 69.4877 31.7292C67.8946 30.7571 66.639 29.3935 65.721 27.6384C64.8029 25.8832 64.3438 23.8851 64.3438 21.6439C64.3438 19.3758 64.8029 17.3911 65.721 15.69C66.639 13.9619 67.8946 12.6253 69.4877 11.6802C71.1078 10.7351 72.9035 10.2626 74.8746 10.2626ZM83.1372 21.6844C83.1372 20.0103 82.7997 18.5522 82.1246 17.3101C81.4496 16.068 80.5315 15.123 79.3704 14.4749C78.2364 13.7999 76.9808 13.4623 75.6037 13.4623C74.2266 13.4623 72.971 13.7864 71.8369 14.4344C70.7028 15.0825 69.7982 16.0275 69.1232 17.2696C68.4481 18.5117 68.1106 19.9698 68.1106 21.6439C68.1106 23.3451 68.4481 24.8302 69.1232 26.0993C69.7982 27.3413 70.7028 28.2999 71.8369 28.975C72.971 29.623 74.2266 29.947 75.6037 29.947C76.9808 29.947 78.2364 29.623 79.3704 28.975C80.5315 28.2999 81.4496 27.3413 82.1246 26.0993C82.7997 24.8302 83.1372 23.3586 83.1372 21.6844Z" stroke="white" stroke-width="4" mask="url(#path-1-outside-1)"/>
<path d="M102.772 33.1873C100.693 33.1873 98.803 32.7147 97.1019 31.7697C95.4277 30.8246 94.1046 29.488 93.1326 27.7599C92.1875 26.0047 91.715 23.9796 91.715 21.6844C91.715 19.4163 92.201 17.4181 93.1731 15.69C94.1722 13.9349 95.5223 12.5983 97.2234 11.6802C98.9245 10.7351 100.828 10.2626 102.934 10.2626C105.04 10.2626 106.944 10.7351 108.645 11.6802C110.346 12.5983 111.683 13.9214 112.655 15.6495C113.654 17.3776 114.154 19.3893 114.154 21.6844C114.154 23.9796 113.641 26.0047 112.615 27.7599C111.615 29.488 110.252 30.8246 108.524 31.7697C106.796 32.7147 104.878 33.1873 102.772 33.1873ZM102.772 29.947C104.095 29.947 105.337 29.6365 106.499 29.0155C107.66 28.3944 108.591 27.4629 109.293 26.2208C110.022 24.9787 110.387 23.4666 110.387 21.6844C110.387 19.9023 110.036 18.3902 109.334 17.1481C108.632 15.906 107.714 14.9879 106.58 14.3939C105.445 13.7729 104.217 13.4623 102.894 13.4623C101.544 13.4623 100.302 13.7729 99.1675 14.3939C98.0604 14.9879 97.1694 15.906 96.4943 17.1481C95.8193 18.3902 95.4818 19.9023 95.4818 21.6844C95.4818 23.4936 95.8058 25.0192 96.4538 26.2613C97.1289 27.5034 98.0199 28.4349 99.127 29.056C100.234 29.65 101.449 29.947 102.772 29.947Z" stroke="white" stroke-width="4" mask="url(#path-1-outside-1)"/>
<path d="M144.662 32.8227L137.939 21.2794H133.484V32.8227H129.798V4.59219H138.911C141.044 4.59219 142.84 4.95672 144.298 5.68577C145.783 6.41482 146.89 7.40039 147.619 8.64248C148.348 9.88457 148.713 11.3022 148.713 12.8953C148.713 14.8394 148.146 16.5541 147.012 18.0392C145.905 19.5243 144.23 20.5098 141.989 20.9959L149.077 32.8227H144.662ZM133.484 18.3227H138.911C140.909 18.3227 142.408 17.8367 143.407 16.8646C144.406 15.8655 144.905 14.5424 144.905 12.8953C144.905 11.2212 144.406 9.92508 143.407 9.00701C142.435 8.08894 140.936 7.62991 138.911 7.62991H133.484V18.3227Z" stroke="white" stroke-width="4" mask="url(#path-1-outside-1)"/>
<path d="M164.12 33.1873C162.041 33.1873 160.151 32.7147 158.45 31.7697C156.775 30.8246 155.452 29.488 154.48 27.7599C153.535 26.0047 153.063 23.9796 153.063 21.6844C153.063 19.4163 153.549 17.4181 154.521 15.69C155.52 13.9349 156.87 12.5983 158.571 11.6802C160.272 10.7351 162.176 10.2626 164.282 10.2626C166.388 10.2626 168.292 10.7351 169.993 11.6802C171.694 12.5983 173.031 13.9214 174.003 15.6495C175.002 17.3776 175.501 19.3893 175.501 21.6844C175.501 23.9796 174.988 26.0047 173.962 27.7599C172.963 29.488 171.6 30.8246 169.871 31.7697C168.143 32.7147 166.226 33.1873 164.12 33.1873ZM164.12 29.947C165.443 29.947 166.685 29.6365 167.846 29.0155C169.007 28.3944 169.939 27.4629 170.641 26.2208C171.37 24.9787 171.735 23.4666 171.735 21.6844C171.735 19.9023 171.384 18.3902 170.681 17.1481C169.979 15.906 169.061 14.9879 167.927 14.3939C166.793 13.7729 165.565 13.4623 164.242 13.4623C162.891 13.4623 161.649 13.7729 160.515 14.3939C159.408 14.9879 158.517 15.906 157.842 17.1481C157.167 18.3902 156.829 19.9023 156.829 21.6844C156.829 23.4936 157.153 25.0192 157.802 26.2613C158.477 27.5034 159.368 28.4349 160.475 29.056C161.582 29.65 162.797 29.947 164.12 29.947Z" stroke="white" stroke-width="4" mask="url(#path-1-outside-1)"/>
<path d="M178.97 21.6844C178.97 19.3893 179.429 17.3911 180.347 15.69C181.266 13.9619 182.535 12.6253 184.155 11.6802C185.802 10.7351 187.678 10.2626 189.785 10.2626C192.512 10.2626 194.753 10.9241 196.508 12.2472C198.29 13.5703 199.465 15.4065 200.032 17.7556H196.063C195.685 16.4055 194.942 15.339 193.835 14.5559C192.755 13.7729 191.405 13.3813 189.785 13.3813C187.678 13.3813 185.977 14.1104 184.681 15.5685C183.385 16.9996 182.737 19.0382 182.737 21.6844C182.737 24.3576 183.385 26.4233 184.681 27.8814C185.977 29.3395 187.678 30.0685 189.785 30.0685C191.405 30.0685 192.755 29.6905 193.835 28.9345C194.915 28.1784 195.658 27.0983 196.063 25.6942H200.032C199.438 27.9624 198.25 29.785 196.468 31.1621C194.686 32.5122 192.458 33.1873 189.785 33.1873C187.678 33.1873 185.802 32.7147 184.155 31.7697C182.535 30.8246 181.266 29.488 180.347 27.7599C179.429 26.0317 178.97 24.0066 178.97 21.6844Z" stroke="white" stroke-width="4" mask="url(#path-1-outside-1)"/>
<path d="M215.967 10.2221C217.641 10.2221 219.153 10.5866 220.503 11.3157C221.853 12.0177 222.906 13.0843 223.662 14.5154C224.445 15.9465 224.837 17.6881 224.837 19.7403V32.8227H221.192V20.2668C221.192 18.0527 220.638 16.365 219.531 15.204C218.424 14.0159 216.912 13.4218 214.995 13.4218C213.05 13.4218 211.498 14.0294 210.337 15.2445C209.203 16.4596 208.636 18.2282 208.636 20.5503V32.8227H204.95V2.85056H208.636V13.7864C209.365 12.6523 210.364 11.7747 211.633 11.1537C212.929 10.5326 214.374 10.2221 215.967 10.2221Z" stroke="white" stroke-width="4" mask="url(#path-1-outside-1)"/>
<path d="M229.48 21.6439C229.48 19.3758 229.939 17.3911 230.857 15.69C231.776 13.9619 233.031 12.6253 234.624 11.6802C236.244 10.7351 238.04 10.2626 240.011 10.2626C241.955 10.2626 243.643 10.6811 245.074 11.5182C246.505 12.3553 247.572 13.4083 248.274 14.6774V10.6271H252V32.8227H248.274V28.6914C247.545 29.9875 246.451 31.0676 244.993 31.9317C243.562 32.7687 241.888 33.1873 239.971 33.1873C237.999 33.1873 236.217 32.7012 234.624 31.7292C233.031 30.7571 231.776 29.3935 230.857 27.6384C229.939 25.8832 229.48 23.8851 229.48 21.6439ZM248.274 21.6844C248.274 20.0103 247.936 18.5522 247.261 17.3101C246.586 16.068 245.668 15.123 244.507 14.4749C243.373 13.7999 242.117 13.4623 240.74 13.4623C239.363 13.4623 238.108 13.7864 236.973 14.4344C235.839 15.0825 234.935 16.0275 234.26 17.2696C233.585 18.5117 233.247 19.9698 233.247 21.6439C233.247 23.3451 233.585 24.8302 234.26 26.0993C234.935 27.3413 235.839 28.2999 236.973 28.975C238.108 29.623 239.363 29.947 240.74 29.947C242.117 29.947 243.373 29.623 244.507 28.975C245.668 28.2999 246.586 27.3413 247.261 26.0993C247.936 24.8302 248.274 23.3586 248.274 21.6844Z" stroke="white" stroke-width="4" mask="url(#path-1-outside-1)"/>
</svg>
